<svg
   width="48"
   height="48"
   viewBox="0 0 12.7 12.7"
   version="1.1"
   id="svg2504"
   sodipodi:docname="add-button-opt.svg"
   inkscape:version="1.1.1 (3bf5ae0d25, 2021-09-20)"
   xmlns:inkscape="http://www.inkscape.org/namespaces/inkscape"
   xmlns:sodipodi="http://sodipodi.sourceforge.net/DTD/sodipodi-0.dtd"
   xmlns="http://www.w3.org/2000/svg"
   xmlns:svg="http://www.w3.org/2000/svg">
  <sodipodi:namedview
     id="namedview9"
     pagecolor="#505050"
     bordercolor="#eeeeee"
     borderopacity="1"
     inkscape:pageshadow="0"
     inkscape:pageopacity="0"
     inkscape:pagecheckerboard="0"
     showgrid="false"
     inkscape:snap-page="true"
     inkscape:snap-object-midpoints="true"
     inkscape:zoom="9.5104167"
     inkscape:cx="16.771084"
     inkscape:cy="35.907996"
     inkscape:window-width="3440"
     inkscape:window-height="1387"
     inkscape:window-x="-8"
     inkscape:window-y="-8"
     inkscape:window-maximized="1"
     inkscape:current-layer="svg2504" />
  <defs
     id="defs2501" />
  <g
     id="g938">
    <rect
       style="fill:#2e2525;fill-opacity:1;stroke:none;stroke-width:0.0661591;stop-color:#000000"
       id="rect1050"
       width="12.700002"
       height="12.700001"
       x="4.4610882e-08"
       y="5.9463034e-09"
       ry="0" />
    <path
       id="rect1542"
       style="fill:#966533;fill-opacity:1;stroke:#473120;stroke-width:0.0793753;stroke-opacity:1;stop-color:#000000"
       d="m 5.7895218,1.0980213 c -0.4171134,0 -0.7525173,0.3354039 -0.7525173,0.7525173 v 3.186465 H 1.8505393 c -0.4171135,0 -0.7525173,0.335404 -0.7525173,0.7525173 v 1.1209656 c 0,0.4171135 0.3354038,0.7525102 0.7525173,0.7525102 h 3.1864652 v 3.1864723 c 0,0.417113 0.3354039,0.75251 0.7525173,0.75251 h 1.1209656 c 0.4171135,0 0.7525102,-0.335397 0.7525102,-0.75251 V 7.6629967 H 10.84947 c 0.417113,0 0.75251,-0.3353967 0.75251,-0.7525102 V 5.7895209 c 0,-0.4171133 -0.335397,-0.7525173 -0.75251,-0.7525173 H 7.6629976 v -3.186465 c 0,-0.4171134 -0.3353967,-0.7525173 -0.7525102,-0.7525173 z" />
  </g>
</svg>
