<svg
   width="48"
   height="48"
   viewBox="0 0 12.7 12.7"
   version="1.1"
   id="svg2504"
   xmlns="http://www.w3.org/2000/svg"
   xmlns:svg="http://www.w3.org/2000/svg">
  <defs
     id="defs2501" />
  <g
     id="layer1">
    <g
       id="g621324"
       transform="matrix(0.54271472,0,0,0.54271472,-237.15142,167.22031)">
      <!-- <rect
         style="fill:#473120;fill-opacity:1;stroke:none;stroke-width:0.146256;stop-color:#000000"
         id="rect850"
         width="23.400883"
         height="23.400883"
         x="436.97253"
         y="-308.11826"
         ry="1.7191068" /> -->
      <rect
         style="fill:#2e2525;fill-opacity:1;stroke:none;stroke-width:0.121904;stop-color:#000000"
         id="rect1050"
         width="18.425892"
         height="18.425892"
         x="439.46002"
         y="-305.63077"
         ry="0" />
      <path
         id="rect1542"
         style="fill:#966533;fill-opacity:1;stroke:#473120;stroke-width:0.146256;stroke-opacity:1;stop-color:#000000"
         d="m 447.88645,-303.78773 c -0.58532,0 -1.05598,0.47066 -1.05598,1.05598 v 4.47145 h -4.47145 c -0.58532,0 -1.05598,0.47066 -1.05598,1.05598 v 1.57301 c 0,0.58532 0.47066,1.05597 1.05598,1.05597 h 4.47145 v 4.47146 c 0,0.58532 0.47066,1.05597 1.05598,1.05597 h 1.57301 c 0.58532,0 1.05597,-0.47065 1.05597,-1.05597 v -4.47146 h 4.47146 c 0.58532,0 1.05597,-0.47065 1.05597,-1.05597 v -1.57301 c 0,-0.58532 -0.47065,-1.05598 -1.05597,-1.05598 h -4.47146 v -4.47145 c 0,-0.58532 -0.47065,-1.05598 -1.05597,-1.05598 z" />
    </g>
  </g>
</svg>
