<svg width="48" height="48" version="1.1" viewBox="0 0 12.7 12.7" xmlns="http://www.w3.org/2000/svg">
 <g transform="matrix(.54271 0 0 .54271 17.249 133.34)">
  <rect x="-31.783" y="-245.7" width="23.401" height="23.401" ry="1.7191" fill="#473120" stop-color="#000000"/>
  <rect x="-29.296" y="-243.21" width="18.426" height="18.426" ry="0" fill="#2e2525" stop-color="#000000"/>
  <g transform="rotate(135 -63.853 -21.387)" fill="#966533" stroke="#473120">
   <path d="m-245.12 88.264c0.17296 4.78e-4 0.16647 0.30322 0.24971 0.45484 0.52013 0.94739 1.5604 2.8422 1.5604 2.8422l8e-3 2.4055h-3.6709v-2.4055s1.0689-1.8934 1.5998-2.8422c0.0847-0.1514 0.0795-0.45532 0.25299-0.45484z" stop-color="#000000" stroke-width=".17906" style="paint-order:markers fill stroke"/>
   <rect transform="matrix(1 .0026417 -.0028317 1 0 0)" x="-246.72" y="93.056" width="3.7079" height="14.179" ry="1.0651" stop-color="#000000" stroke-width=".14293" style="-inkscape-stroke:none;font-variation-settings:normal;paint-order:markers fill stroke"/>
   <rect transform="matrix(.99998 .0064452 -.0011606 1 0 0)" x="-245.84" y="93.512" width="1.5708" height="14.655" ry="0" stop-color="#000000" stroke-width=".094578" style="-inkscape-stroke:none;font-variation-settings:normal;paint-order:markers fill stroke"/>
   <path d="m-243.28 91.556-0.0341 2.107c-7e-3 0.44596-3.7138 0.36453-3.7079-0.0018l0.0341-2.107c-4e-3 0.24546 3.7079 0.34656 3.7079 0.0017z" stop-color="#000000" stroke-width=".059772" style="paint-order:markers fill stroke"/>
  </g>
 </g>
</svg>
