<svg width="48" height="48" version="1.1" viewBox="0 0 12.7 12.7" xmlns="http://www.w3.org/2000/svg">
 <rect x="3.1952e-6" y="4.8827e-6" width="12.7" height="12.7" ry=".93298" fill="#473120" stop-color="#000000"/>
 <rect x="1.35" y="1.35" width="10" height="10" ry="0" fill="#2e2525" stop-color="#000000"/>
 <g transform="translate(4.2673 -15.93)">
  <path transform="scale(.26458)" d="m1.1992 77.666v15.543c0.78023 2.8693 4.1828 3.4082 6.6836 3.4082 2.5008 0 6.4144-0.78009 6.6836-3.4082v-15.543z" fill="#3d4634" stop-color="#000000" stroke="#473120" stroke-width="1.6" style="paint-order:markers stroke fill"/>
  <g>
   <path d="m3.9963 19.359c0.064385 0.40826-0.94954 0.86411-1.9118 0.86411s-2.0633-0.47959-1.9118-0.86411c0.11925-0.30257 0.96861-0.50228 1.91-0.48101 0.92948 0.021 1.859 0.13576 1.9135 0.48101z" fill="#24291f" stop-color="#000000" style="paint-order:markers stroke fill"/>
   <g stroke="#473120" stroke-linecap="round">
    <path d="m2.0827 19.46c-0.68586-1e-4 -1.5188 0.13674-1.8926 0.80728l-0.01602-0.90082c0.56586-0.35232 1.2533-0.48412 1.9102-0.48533 0.65694-0.0012 1.4808 0.14596 1.9119 0.47826 0.00511 0.20306-0.01359 0.72529-0.02245 0.9079-0.29641-0.65012-1.2057-0.80718-1.8911-0.80728z" fill="#3d4634" stop-color="#000000" stroke-linejoin="bevel" stroke-width=".29014" style="-inkscape-stroke:none;font-variation-settings:normal;paint-order:stroke fill markers"/>
    <path transform="matrix(.72525 .68848 0 1 0 0)" d="m0.65504 20.021h0.2273v4.6015s-0.12906 0.0678-0.17249 0.06502c-0.035145-0.0022-0.054807-0.06502-0.054807-0.06502z" fill="#46503d" stop-color="#000000" stroke-width=".046602" style="paint-order:markers fill stroke"/>
    <path transform="matrix(-.94966 .31328 0 1 0 0)" d="m-3.4457 21.778h0.26593v4.7145s-0.13023 0.04495-0.18807 0.03919c-0.031392-0.0031-0.077866-0.03919-0.077866-0.03919z" fill="#46503d" stop-color="#000000" stroke-width=".054301" style="paint-order:markers fill stroke"/>
   </g>
  </g>
  <path d="m0.19688 20.338v4.4123c0.22175 0.81453 1.1888 0.96752 1.8995 0.96752 0.71074 0 1.823-0.22145 1.8995-0.96752v-4.4123z" fill="none" stop-color="#000000" stroke="#473120" stroke-width=".21167" style="paint-order:markers stroke fill"/>
  <g fill="#46503d" stroke="#473120" stroke-linecap="round">
   <path d="m1.8621 20.786h0.46302v4.8796s-0.1434 0.06701-0.22022 0.06803c-0.084042 0.0011-0.2428-0.06803-0.2428-0.06803z" stop-color="#000000" stroke-width=".066146" style="paint-order:markers fill stroke"/>
   <path transform="matrix(.96019 .27936 0 1 0 0)" d="m1.0382 20.46h0.26302v4.7088s-0.10933 0.05717-0.16015 0.0553c-0.04276-0.0016-0.10287-0.0553-0.10287-0.0553z" stop-color="#000000" stroke-width=".054003" style="paint-order:markers fill stroke"/>
   <path transform="matrix(-.72525 .68848 0 1 0 0)" d="m-5.1468 24.015h0.2273v4.6015s-0.14405 0.07682-0.18939 0.07041c-0.030355-0.0043-0.037911-0.07041-0.037911-0.07041z" stop-color="#000000" stroke-width=".046602" style="paint-order:markers fill stroke"/>
  </g>
  <g stroke="#473120" stroke-linecap="round" stroke-linejoin="round">
   <g stroke-width=".015875">
    <path d="m2.2091 20.228-0.44149 0.2815-0.057146 0.0543-0.42231-0.12888-0.068967-0.0024-0.085122-0.44221-0.028854-0.05726 0.31616-0.42254 0.032986-0.06903 0.47937-0.08469 0.069987-0.02881 0.2816 0.31693 0.054287 0.03309-0.12822 0.4799z" fill="#775028" stop-color="#000000" style="paint-order:fill markers stroke"/>
    <path d="m2.0522 20.031-0.20922 0.1334-0.027081 0.02573-0.20013-0.06108-0.032683-0.0011-0.040339-0.20956-0.013674-0.02714 0.14983-0.20024 0.015632-0.03271 0.22717-0.04013 0.033167-0.01365 0.13345 0.15019 0.025726 0.01568-0.060762 0.22742z" fill="#775028" stop-color="#000000" style="paint-order:fill markers stroke"/>
    <path d="m1.595 19.579-0.027077 0.0072-0.19502-0.0091-0.00845 0.03144-0.098443 0.18116 0.016982 0.03239 0.072221 0.23505 0.029176 0.0089 0.10843 0.06445 0.056972 0.09664 0.035561-0.0049 0.23089 0.01495 0.022884-0.02542 0.19244-0.14467-0.00717-0.02708 0.00956-0.19488-0.032074-0.0081-0.18053-0.09881-0.032887 0.01685-0.050161 0.01542z" fill="#966533" stop-color="#000000" style="paint-order:fill markers stroke"/>
   </g>
   <g transform="matrix(.078099 .15062 -.1064 .059891 4.2082 17.74)">
    <path transform="matrix(.26458 0 0 .26458 .11576 14.767)" d="m13.219 78.688-12.161-3.4125-1.8755-0.066195-4.914-11.635-1.1176-1.5076 6.033-11.096 0.48187-1.8137 12.437-2.2017 1.7185-0.75409 9.4757 8.3509 1.661 0.87337-0.62096 12.615 0.35279 1.8432-10.25 7.3799z" fill="#775028" stop-color="#000000" stroke-width=".417" style="paint-order:fill markers stroke"/>
    <path transform="matrix(-.20183 -.0072782 .008205 -.20144 2.614 42.962)" d="m10.234 74.227-10.324-2.6779-1.2391-5.1104-0.64352-10.646 4.4774-2.7576 9.9265-3.9019 4.0063 3.4061 6.7784 8.2349-2.0014 4.8627-5.7372 8.9914z" fill="#775028" stop-color="#000000" stroke-width=".54678" style="font-variation-settings:normal;paint-order:fill markers stroke"/>
    <path d="m3.93 27.108-2.3093 0.99748-1.0422 0.70482 0.049754 0.90212-0.9395 0.66371-0.93209 0.92952 0.67221 2.4838 0.54412 1.1356 2.5898-5.61e-4 1.2687-0.228 0.41285-1.1055 0.39433 0.03288 1.3354-2.298 0.46525-1.2425-1.5768-2.1046z" fill="#966533" stop-color="#000000" stroke-width=".11033" style="paint-order:fill markers stroke"/>
    <path d="m6.8722 32.745-2.4833 1.0969-0.32144 0.21159-2.3754-0.50223-0.38793-0.0093-0.4788-1.7232-0.1623-0.22313 1.7784-1.6466 0.18555-0.26898 2.6964-0.33003 0.39367-0.11228 1.584 1.235 0.30536 0.12896-0.72122 1.8701z" fill="#775028" stop-color="#000000" stroke-width=".11033" style="paint-order:fill markers stroke"/>
   </g>
   <g transform="matrix(.15927 .046971 -.046925 .15912 3.8366 14.774)">
    <path transform="matrix(.26458 0 0 .26458 .11576 14.767)" d="m13.219 78.688-12.161-3.4125-1.8755-0.066195-4.914-11.635-1.1176-1.5076 6.033-11.096 0.48187-1.8137 12.437-2.2017 1.7185-0.75409 9.4757 8.3509 1.661 0.87337-0.62096 12.615 0.35279 1.8432-10.25 7.3799z" fill="#775028" stop-color="#000000" stroke-width=".36753" style="paint-order:fill markers stroke"/>
    <path transform="matrix(-.20183 -.0072782 .008205 -.20144 2.614 42.962)" d="m10.234 74.227-10.324-2.6779-1.2391-5.1104-0.64352-10.646 4.4774-2.7576 9.9265-3.9019 4.0063 3.4061 6.7784 8.2349-2.0014 4.8627-5.7372 8.9914z" fill="#775028" stop-color="#000000" stroke-width=".48192" style="font-variation-settings:normal;paint-order:fill markers stroke"/>
    <path d="m3.93 27.108-2.3093 0.99748-1.0422 0.70482 0.049754 0.90212-0.9395 0.66371-0.93209 0.92952 0.67221 2.4838 0.54412 1.1356 2.5898-5.61e-4 1.2687-0.228 0.41285-1.1055 0.39433 0.03288 1.3354-2.298 0.46525-1.2425-1.5768-2.1046z" fill="#966533" stop-color="#000000" stroke-width=".097241" style="paint-order:fill markers stroke"/>
    <path d="m6.8722 32.745-2.4833 1.0969-0.32144 0.21159-2.3754-0.50223-0.38793-0.0093-0.4788-1.7232-0.1623-0.22313 1.7784-1.6466 0.18555-0.26898 2.6964-0.33003 0.39367-0.11228 1.584 1.235 0.30536 0.12896-0.72122 1.8701z" fill="#775028" stop-color="#000000" stroke-width=".097241" style="paint-order:fill markers stroke"/>
   </g>
  </g>
  <g stroke-linecap="round" stroke-linejoin="round">
   <path d="m3.9335 19.302c-0.33427 0.59969-1.1789 0.7781-1.8495 0.77836-0.60384-0.0071-1.4275-0.1872-1.8124-0.74621-0.078452-0.11734-0.23789-0.11754-0.24224 0.02355-0.0086246 0.20778-0.0070915 0.72744-0.0019531 0.93164 0.0011211 0.04375 0.021934 0.08466 0.056641 0.11133 0.47071 0.36279 1.2919 0.63069 1.998 0.63086 0.70428 1.7e-4 1.4044-0.25952 1.9883-0.62305 0.04249-0.02647 0.068328-0.07298 0.068359-0.12305l0.00195-0.92578zm-3.6131 0.34671c0.49195 0.47837 1.1829 0.71585 1.7598 0.72266 6.5e-4 4e-6 0.0013 4e-6 0.00195 0 0.61562 9.1e-5 1.3046-0.21843 1.7676-0.71484l-0.00195 0.52734c-0.53498 0.3209-1.1573 0.55874-1.7656 0.55859-0.60851-1.46e-4 -1.3602-0.26441-1.7637-0.55469-0.002362-0.15088 2.7794e-4 -0.34176 0.001953-0.53906z" color="#000000" fill="#473120" style="-inkscape-stroke:none;paint-order:stroke fill markers"/>
   <path d="m2.0827 20.226c0.69826 1.04e-4 1.5393-0.19666 1.9131-0.8672l-0.00292 0.92594c-0.028055 0.01747 0.025466 0.03176-0.00312 0.04871-0.54807 0.32485-1.2737 0.55344-1.9086 0.55328-0.64877-1.57e-4 -1.4681-0.23757-1.9073-0.55724-0.01239-9e-3 0.010574-0.03563-0.001256-0.04475-0.004991-0.19834-0.006201-0.7243 0.001954-0.92076 0.42593 0.61857 1.2701 0.85449 1.9082 0.86202z" color="#000000" fill="#46503d" stroke-width=".29014" style="-inkscape-stroke:none;paint-order:stroke fill markers"/>
  </g>
 </g>
</svg>
